# xmcd
# 
# Track frame offsets:
#     150
#     16596
#     34630
#     54723
#     72190
#     88363
#     104719
#     123361
#     140938
#     157880
#     175265
#     193302
#     206701
#     225712
#     244113
# 
# Disc length: 3472
# 
# Revision: 0
# Processed by: cddbd v1.5.2PL0 Copyright (c) Steve Scherf et al.
# Submitted via: BonkEnc v1.0
# 
DISCID=da0d8e0f
DTITLE=Rick and Renner - Só Pensando em Você
DYEAR=2002
DGENRE=Sertanejo
TTITLE0=Você Decide
TTITLE1=É Você
TTITLE2=Só Pensando em Você
TTITLE3=Não Quero, Mas Eu Te Amo
TTITLE4=Eu Sem Você
TTITLE5=Vou Ganhar Você
TTITLE6=Tchau Saudade
TTITLE7=Chama Por Ela
TTITLE8=Simbora. Bora
TTITLE9=Noistropica, Mas Não Cai
TTITLE10=Eu Amo Essa Mulher
TTITLE11=Vontade de Te Ver
TTITLE12=Paixão Caliente
TTITLE13=Onde Anda Você
TTITLE14=Rodeio e Vaquejada
EXTD=YEAR: 2002
EXTT0=
EXTT1=
EXTT2=
EXTT3=
EXTT4=
EXTT5=
EXTT6=
EXTT7=
EXTT8=
EXTT9=
EXTT10=
EXTT11=
EXTT12=
EXTT13=
EXTT14=
PLAYORDER=
